<svg xmlns="http://www.w3.org/2000/svg" width="24.615" height="20" viewBox="0 0 24.615 20"><path id="twitter" fill="#03a9f4" d="M24.615,50.368a10.521,10.521,0,0,1-2.908.8,5.018,5.018,0,0,0,2.22-2.789,10.085,10.085,0,0,1-3.2,1.222A5.046,5.046,0,0,0,12,53.048a5.2,5.2,0,0,0,.117,1.151,14.284,14.284,0,0,1-10.4-5.278,5.048,5.048,0,0,0,1.551,6.745,4.984,4.984,0,0,1-2.28-.622V55.1a5.07,5.07,0,0,0,4.043,4.958,5.037,5.037,0,0,1-1.323.166,4.462,4.462,0,0,1-.955-.086,5.094,5.094,0,0,0,4.715,3.515A10.14,10.14,0,0,1,1.208,65.8,9.453,9.453,0,0,1,0,65.735,14.207,14.207,0,0,0,7.742,68,14.264,14.264,0,0,0,22.1,53.64c0-.223-.008-.438-.018-.652A10.067,10.067,0,0,0,24.615,50.368Z" transform="translate(0 -48)"/></svg>