<svg xmlns="http://www.w3.org/2000/svg" id="Apple" width="66.418" height="27.232" viewBox="0 0 66.418 27.232"><path id="Path_35" d="M12.574,3.711A5.243,5.243,0,0,0,13.733,0a5.214,5.214,0,0,0-3.367,1.743A4.943,4.943,0,0,0,9.151,5.285a3.935,3.935,0,0,0,3.422-1.574m1.159,1.912C11.856,5.51,10.255,6.69,9.372,6.69S7.109,5.678,5.618,5.678A5.526,5.526,0,0,0,.927,8.6C-1.061,12.144.375,17.373,2.362,20.24c.938,1.406,2.1,2.98,3.588,2.924,1.435-.056,1.987-.956,3.7-.956s2.208.956,3.753.9,2.539-1.406,3.478-2.867a11.424,11.424,0,0,0,1.546-3.261,5.136,5.136,0,0,1-.607-9.052,5.11,5.11,0,0,0-4.085-2.305" data-name="Path 35" transform="translate(0.026)"/><path id="Path_36" d="M47.938,2.9a6.624,6.624,0,0,1,6.9,6.972,6.7,6.7,0,0,1-7.01,7.028H43.357v7.253H40.1V2.9ZM43.357,14.144h3.7c2.815,0,4.416-1.574,4.416-4.217,0-2.7-1.6-4.217-4.416-4.217H43.3v8.433Zm12.309,5.678c0-2.7,2.042-4.385,5.685-4.61l4.2-.225V13.807c0-1.743-1.159-2.755-3.036-2.755-1.822,0-2.926.9-3.2,2.249H56.328c.166-2.811,2.539-4.891,6.293-4.891,3.7,0,6.072,1.968,6.072,5.116V24.208H65.712v-2.53h-.055a5.392,5.392,0,0,1-4.8,2.811C57.764,24.489,55.666,22.578,55.666,19.823Zm9.881-1.406V17.18l-3.753.225c-1.877.112-2.926.956-2.926,2.305s1.1,2.249,2.76,2.249A3.675,3.675,0,0,0,65.547,18.417Zm5.906,11.526V27.357a5.892,5.892,0,0,0,.994.056c1.435,0,2.208-.618,2.7-2.193,0-.056.276-.956.276-.956L69.907,8.747h3.367L77.138,21.4h.055l3.864-12.65h3.312L78.684,25.108c-1.325,3.767-2.815,4.948-5.961,4.948C72.5,30,71.729,30,71.453,29.943Z" data-name="Path 36" transform="translate(-17.951 -2.823)"/></svg>