<svg xmlns="http://www.w3.org/2000/svg" width="76.55" height="34.04" viewBox="0 0 76.55 34.04"><g id="bKash" transform="translate(0 0)"><path id="Path_37" d="M59.323-270.471a4.976,4.976,0,0,0-.126-1.15,1.418,1.418,0,0,0-.516-.833l2.08-.317v6.183a.087.087,0,0,0,.1.1c.038,0,.131-.082.273-.25a5.067,5.067,0,0,1,.556-.536,4.372,4.372,0,0,1,.822-.538,2.322,2.322,0,0,1,1.086-.25,2.507,2.507,0,0,1,1.485.427,3.16,3.16,0,0,1,.969,1.092,5.264,5.264,0,0,1,.528,1.469,7.683,7.683,0,0,1,.166,1.576,7.109,7.109,0,0,1-.243,1.886,4.716,4.716,0,0,1-.742,1.568,3.535,3.535,0,0,1-1.277,1.069,4.019,4.019,0,0,1-1.851.4,6.689,6.689,0,0,1-.858-.05c-.261-.032-.516-.069-.771-.109s-.52-.076-.8-.109a8.29,8.29,0,0,0-.946-.05q.031-1.249.05-2.488t.016-2.486v-6.6Zm5.723,6.037a4.74,4.74,0,0,0-.39-1.2,2.443,2.443,0,0,0-.7-.873,1.668,1.668,0,0,0-1.044-.338,1.807,1.807,0,0,0-1.591.823,3.98,3.98,0,0,0-.556,2.253v1.528a10.633,10.633,0,0,0,.058,1.132,2.627,2.627,0,0,0,.264.932,1.614,1.614,0,0,0,.595.634,2.055,2.055,0,0,0,1.074.238,1.944,1.944,0,0,0,1.22-.365,2.466,2.466,0,0,0,.742-.932,4.426,4.426,0,0,0,.361-1.24,9.17,9.17,0,0,0,.1-1.29A6.908,6.908,0,0,0,65.046-264.434Z" data-name="Path 37" transform="translate(-58.68 285.148)"/><path id="Path_38" d="M121.838-262.411q0-.672-.05-1.374A2.545,2.545,0,0,0,121.41-265h2.622a2.528,2.528,0,0,0-.381,1.214q-.05.7-.05,1.372v3.077a1.762,1.762,0,0,0,.731-.335,6.689,6.689,0,0,0,.78-.672c.267-.262.529-.549.79-.858s.513-.609.759-.9q.8-.947,1.266-1.559a1.83,1.83,0,0,0,.468-.966v-.217a.528.528,0,0,0-.019-.158h2.416q-.681.611-1.277,1.124a14.313,14.313,0,0,0-1.236,1.224l-3.02,3.314,3.234,4.691q.388.575.857,1.158t.916,1.1H128.22a.6.6,0,0,1-.428-.148,2.193,2.193,0,0,1-.312-.387l-3.506-5.38a2.036,2.036,0,0,0-.147-.208c-.058-.072-.106-.109-.145-.109a.063.063,0,0,0-.069.06.73.73,0,0,0-.01.119v3.462c0,.449.016.907.05,1.377a2.53,2.53,0,0,0,.381,1.216h-2.622a2.523,2.523,0,0,0,.379-1.216c.032-.467.05-.924.05-1.372v-7.433Z" data-name="Path 38" transform="translate(-111.381 278.629)"/><path id="Path_39" d="M186.785-234.239a6.283,6.283,0,0,1-.165-.89c-.019-.224-.067-.335-.144-.335a.113.113,0,0,0-.078.019c-.013.013-.027.026-.038.039-.131.185-.259.361-.382.525a2.14,2.14,0,0,1-.441.435,2.012,2.012,0,0,1-.606.3,2.957,2.957,0,0,1-.862.11,2.705,2.705,0,0,1-1.723-.554,1.96,1.96,0,0,1-.705-1.642,1.775,1.775,0,0,1,.36-1.119,3.725,3.725,0,0,1,.9-.821,7.268,7.268,0,0,1,1.153-.623c.411-.179.779-.346,1.1-.506.273-.132.5-.245.683-.338a1.424,1.424,0,0,0,.43-.319.987.987,0,0,0,.214-.457,3.9,3.9,0,0,0,.059-.757,2.226,2.226,0,0,0-.331-1.243,1.309,1.309,0,0,0-1.189-.509,1.294,1.294,0,0,0-.974.3,2.175,2.175,0,0,0-.419.654,5.065,5.065,0,0,1-.321.654.682.682,0,0,1-.643.3.768.768,0,0,1-.528-.169.654.654,0,0,1-.193-.523,1.17,1.17,0,0,1,.331-.841,2.505,2.505,0,0,1,.838-.564,4.459,4.459,0,0,1,1.121-.306,8.174,8.174,0,0,1,1.178-.089,6.7,6.7,0,0,1,.993.069,2.651,2.651,0,0,1,.817.248,1.4,1.4,0,0,1,.553.5,1.444,1.444,0,0,1,.2.794v4.362q0,.891.048,1.734a2.671,2.671,0,0,0,.5,1.457Zm-3.092-1.267a1.655,1.655,0,0,0,1.085.346,1.518,1.518,0,0,0,.763-.187,1.73,1.73,0,0,0,.558-.493,2.082,2.082,0,0,0,.333-.7,3.058,3.058,0,0,0,.109-.808v-1.992l-1.057.533q-.549.275-.959.5a4.114,4.114,0,0,0-.694.473,1.6,1.6,0,0,0-.421.554,1.725,1.725,0,0,0-.137.72A1.284,1.284,0,0,0,183.693-235.506Z" data-name="Path 39" transform="translate(-161.982 260.608)"/><path id="Path_40" d="M233.035-240.736a3.256,3.256,0,0,0,.75.705,8.6,8.6,0,0,0,.974.575,6.243,6.243,0,0,1,.974.613,3.333,3.333,0,0,1,.75.805,2.042,2.042,0,0,1,.3,1.15,2.453,2.453,0,0,1-.3,1.242,2.79,2.79,0,0,1-.8.882,3.638,3.638,0,0,1-1.113.535,4.417,4.417,0,0,1-1.239.179,5.339,5.339,0,0,1-1.1-.11,6.506,6.506,0,0,1-1.065-.327.765.765,0,0,1-.243-.139.4.4,0,0,1-.088-.3,6.643,6.643,0,0,1,.038-.713c.026-.238.046-.483.059-.734q.233.374.448.67a2.341,2.341,0,0,0,.488.5,2.027,2.027,0,0,0,.616.316,2.757,2.757,0,0,0,.83.11,2.012,2.012,0,0,0,1.359-.415,1.59,1.59,0,0,0,.48-1.269,1.716,1.716,0,0,0-.281-1,2.946,2.946,0,0,0-.711-.713,7.812,7.812,0,0,0-.935-.575,5.8,5.8,0,0,1-.935-.614,2.99,2.99,0,0,1-.711-.832,2.389,2.389,0,0,1-.283-1.219,1.767,1.767,0,0,1,.788-1.623,4.069,4.069,0,0,1,2.171-.5,5.619,5.619,0,0,1,.887.069c.293.047.587.1.886.169a.9.9,0,0,0,.146.05.126.126,0,0,1,.107.129c0,.185,0,.4-.01.655s-.016.481-.029.694c-.195-.238-.368-.435-.516-.586a1.965,1.965,0,0,0-.457-.358,1.713,1.713,0,0,0-.488-.179,3.15,3.15,0,0,0-.585-.05,1.837,1.837,0,0,0-1.014.288,1.015,1.015,0,0,0-.448.921A1.611,1.611,0,0,0,233.035-240.736Z" data-name="Path 40" transform="translate(-203.309 260.616)"/><path id="Path_41" d="M284.358-261.068q0,.556.038,1.14a2.351,2.351,0,0,0,.273,1h-1.749v-5.438a9.066,9.066,0,0,0-.05-.953,2.45,2.45,0,0,0-.237-.853,1.588,1.588,0,0,0-.531-.615,1.624,1.624,0,0,0-.934-.238,1.672,1.672,0,0,0-.943.238,1.663,1.663,0,0,0-.56.634,2.747,2.747,0,0,0-.277.894,7.127,7.127,0,0,0-.069.992v3.195q0,.556.04,1.142a2,2,0,0,0,.321,1h-2.149a2.045,2.045,0,0,0,.312-1c.026-.39.038-.768.038-1.138v-9.425a10.722,10.722,0,0,0-.058-1.148,1.156,1.156,0,0,0-.448-.833l1.944-.317v5.6c0,.079,0,.151.008.217s.024.1.058.1.113-.063.225-.188a3.022,3.022,0,0,1,.481-.415,3.725,3.725,0,0,1,.777-.415,2.873,2.873,0,0,1,1.09-.188,2.479,2.479,0,0,1,1.757.594,2.611,2.611,0,0,1,.638,1.981Z" data-name="Path 41" transform="translate(-242.417 285.165)"/><path id="Path_42" fill="#d83868" d="M309.35-349.64l16.538,2.174-3.923,13.825Z" data-name="Path 42" transform="translate(-269.276 349.64)"/><path id="Path_43" fill="#d83868" d="M396.487-335.73l12.289,16.46-14.185,6.847-1.765-7.243a10.914,10.914,0,0,1,.261-4.675Z" data-name="Path 43" transform="translate(-339.286 337.97)"/><path id="Path_44" fill="#b11116" d="M472.165-274.811l-4.576-6.452,7.714-1.317Z" data-name="Path 44" transform="translate(-402.218 293.378)"/><path id="Path_45" fill="#b11116" d="M512.648-282.58l2.876,3.095H511.34Z" data-name="Path 45" transform="translate(-438.974 293.378)"/><path id="Path_46" fill="#d93b2b" d="M420.16-224.38l11.7-5.86-.393,1.383Z" data-name="Path 46" transform="translate(-362.371 249.466)"/><path id="Path_47" fill="#9e0b0f" d="M362.5-241.28l-4.9,16.592,7.451-5.926Z" data-name="Path 47" transform="translate(-309.812 258.728)"/><path id="Path_48" fill="#b11116" d="M314.723-326.338l-4.772-6.122-1.831.066Z" data-name="Path 48" transform="translate(-268.242 335.226)"/><path id="Path_49" fill="#c4161c" d="M392.93-241.65c.042.555.1.915.1.915l1.765,7.243,14.185-6.847-.129-.174Z" data-name="Path 49" transform="translate(-339.494 259.039)"/></g></svg>