<svg xmlns="http://www.w3.org/2000/svg" width="85.556" height="23.828" viewBox="0 0 85.556 23.828"><g id="Logo" transform="translate(0)"><path id="Path_26" fill="#253b80" d="M45.927,6.749H39.272a.938.938,0,0,0-.914.816L35.667,25.4a.6.6,0,0,0,.127.467.545.545,0,0,0,.422.2h3.177a.938.938,0,0,0,.914-.817l.726-4.81a.938.938,0,0,1,.913-.817h2.107c4.384,0,6.913-2.217,7.574-6.61a5.548,5.548,0,0,0-.848-4.49c-.946-1.161-2.623-1.776-4.851-1.776Zm.768,6.514c-.364,2.5-2.188,2.5-3.953,2.5h-1l.7-4.661a.563.563,0,0,1,.548-.489h.46c1.2,0,2.335,0,2.921.716a2.4,2.4,0,0,1,.323,1.938Zm19.124-.08H62.632a.563.563,0,0,0-.548.489l-.141.932-.223-.338c-.69-1.046-2.228-1.4-3.764-1.4-3.521,0-6.529,2.788-7.115,6.7a6.5,6.5,0,0,0,1.187,5.117,4.881,4.881,0,0,0,4.014,1.694,6,6,0,0,0,4.411-1.907l-.142.925a.6.6,0,0,0,.125.467.545.545,0,0,0,.421.2h2.87a.938.938,0,0,0,.914-.817l1.722-11.4a.6.6,0,0,0-.125-.466.543.543,0,0,0-.421-.2Zm-4.442,6.482a3.6,3.6,0,0,1-3.6,3.18,2.632,2.632,0,0,1-2.14-.9,2.93,2.93,0,0,1-.5-2.34A3.62,3.62,0,0,1,58.712,16.4a2.633,2.633,0,0,1,2.125.907,2.981,2.981,0,0,1,.539,2.356ZM82.79,13.183h-3.2a.918.918,0,0,0-.766.424l-4.417,6.8-1.872-6.534a.933.933,0,0,0-.887-.69H68.5a.548.548,0,0,0-.452.242.6.6,0,0,0-.074.525L71.5,24.768l-3.316,4.893a.6.6,0,0,0-.041.6.552.552,0,0,0,.493.314h3.2a.913.913,0,0,0,.76-.415L83.246,14.093a.6.6,0,0,0,.036-.6.552.552,0,0,0-.491-.311Z" data-name="Path 26" transform="translate(-35.66 -6.748)"/><path id="Path_27" fill="#179bd7" d="M94.708,6.749H88.052a.938.938,0,0,0-.913.816L84.448,25.4a.6.6,0,0,0,.126.466.544.544,0,0,0,.421.2H88.41a.657.657,0,0,0,.638-.572l.764-5.055a.938.938,0,0,1,.913-.817h2.106c4.385,0,6.913-2.217,7.575-6.61a5.544,5.544,0,0,0-.849-4.49c-.945-1.161-2.621-1.776-4.849-1.776Zm.768,6.514c-.363,2.5-2.187,2.5-3.953,2.5h-1l.705-4.661a.561.561,0,0,1,.547-.489h.46c1.2,0,2.335,0,2.921.716a2.4,2.4,0,0,1,.322,1.938Zm19.123-.08h-3.185a.56.56,0,0,0-.547.489l-.141.932-.224-.338c-.69-1.046-2.227-1.4-3.763-1.4-3.521,0-6.528,2.788-7.114,6.7a6.5,6.5,0,0,0,1.186,5.117,4.884,4.884,0,0,0,4.014,1.694,6,6,0,0,0,4.411-1.907l-.142.925a.6.6,0,0,0,.126.468.545.545,0,0,0,.423.2h2.869a.938.938,0,0,0,.913-.817l1.723-11.4a.6.6,0,0,0-.128-.467.546.546,0,0,0-.422-.2Zm-4.442,6.482a3.6,3.6,0,0,1-3.6,3.18,2.634,2.634,0,0,1-2.14-.9,2.937,2.937,0,0,1-.5-2.34,3.621,3.621,0,0,1,3.571-3.206,2.633,2.633,0,0,1,2.125.907A2.966,2.966,0,0,1,110.157,19.665Zm8.2-12.427L115.624,25.4a.6.6,0,0,0,.126.466.544.544,0,0,0,.421.2h2.746a.937.937,0,0,0,.914-.817l2.693-17.834a.6.6,0,0,0-.126-.467.545.545,0,0,0-.421-.2H118.9a.564.564,0,0,0-.547.49Z" data-name="Path 27" transform="translate(-36.975 -6.748)"/></g></svg>