<svg xmlns="http://www.w3.org/2000/svg" id="masterclass" width="46.156" height="36.31" viewBox="0 0 46.156 36.31"><path id="Path_87" fill="#231f20" d="M146.411,1322.182v.093h.086a.09.09,0,0,0,.046-.012.041.041,0,0,0,.017-.036.04.04,0,0,0-.017-.035.08.08,0,0,0-.046-.012h-.086Zm.087-.066a.159.159,0,0,1,.1.03.1.1,0,0,1,.036.083.094.094,0,0,1-.029.072.14.14,0,0,1-.083.035l.115.133h-.089l-.106-.132h-.034v.132h-.074v-.353h.162Zm-.023.475a.273.273,0,0,0,.113-.024.289.289,0,0,0,.092-.063.3.3,0,0,0,.063-.093.3.3,0,0,0-.062-.324.29.29,0,0,0-.092-.063.28.28,0,0,0-.113-.022.288.288,0,0,0-.21.085.3.3,0,0,0-.062.326.276.276,0,0,0,.062.093.291.291,0,0,0,.094.063.282.282,0,0,0,.115.023m0-.676a.384.384,0,0,1,.271.112.373.373,0,0,1,.082.121.38.38,0,0,1,0,.3.392.392,0,0,1-.082.121.4.4,0,0,1-.122.082.367.367,0,0,1-.149.03.376.376,0,0,1-.151-.03.364.364,0,0,1-.2-.207.379.379,0,0,1,0-.3.372.372,0,0,1,.082-.121.366.366,0,0,1,.123-.082.378.378,0,0,1,.151-.03m-35.333-1.359a1.148,1.148,0,1,1,1.149,1.226,1.144,1.144,0,0,1-1.149-1.226m3.066,0v-1.916h-.824v.467a1.429,1.429,0,0,0-1.2-.561,2.015,2.015,0,0,0,0,4.022,1.43,1.43,0,0,0,1.2-.561v.465h.823v-1.916Zm27.826,0a1.148,1.148,0,1,1,1.149,1.226,1.144,1.144,0,0,1-1.149-1.226m3.067,0V1317.1h-.824v2a1.429,1.429,0,0,0-1.2-.561,2.015,2.015,0,0,0,0,4.022,1.43,1.43,0,0,0,1.2-.561v.465h.824Zm-20.672-1.266a.945.945,0,0,1,.959.929h-1.965a.98.98,0,0,1,1.007-.929m.016-.746a2.014,2.014,0,0,0,.055,4.022,2.283,2.283,0,0,0,1.552-.537l-.4-.617a1.793,1.793,0,0,1-1.1.4,1.055,1.055,0,0,1-1.133-.938h2.812c.008-.1.016-.208.016-.32a1.829,1.829,0,0,0-1.8-2.011m9.943,2.011a1.148,1.148,0,1,1,1.149,1.226,1.144,1.144,0,0,1-1.149-1.226m3.066,0v-1.914h-.823v.467a1.43,1.43,0,0,0-1.2-.561,2.015,2.015,0,0,0,0,4.022,1.431,1.431,0,0,0,1.2-.561v.465h.823v-1.916Zm-7.717,0a1.924,1.924,0,0,0,2.02,2.011,1.965,1.965,0,0,0,1.361-.457l-.4-.673a1.652,1.652,0,0,1-.992.345,1.229,1.229,0,0,1,0-2.452,1.657,1.657,0,0,1,.992.345l.4-.673a1.968,1.968,0,0,0-1.361-.457,1.924,1.924,0,0,0-2.02,2.011m10.617-2.011a1.116,1.116,0,0,0-1,.561v-.464h-.816v3.83h.824v-2.147c0-.634.269-.986.808-.986a1.321,1.321,0,0,1,.515.1l.254-.785a1.734,1.734,0,0,0-.587-.1m-22.074.4a2.807,2.807,0,0,0-1.544-.4c-.959,0-1.577.465-1.577,1.226,0,.625.46,1.01,1.307,1.13l.389.056c.452.064.665.184.665.4,0,.3-.3.465-.863.465a2,2,0,0,1-1.26-.4l-.387.649a2.709,2.709,0,0,0,1.64.5c1.094,0,1.728-.521,1.728-1.25,0-.673-.5-1.025-1.323-1.145l-.388-.057c-.357-.047-.642-.119-.642-.376,0-.28.269-.449.721-.449a2.423,2.423,0,0,1,1.181.328l.357-.673Zm10.626-.4a1.113,1.113,0,0,0-1,.561v-.466h-.816v3.83h.824v-2.147c0-.634.269-.986.808-.986a1.321,1.321,0,0,1,.515.1l.254-.785a1.735,1.735,0,0,0-.587-.1m-7.027.1h-1.347v-1.162H119.7v1.162h-.768v.761h.768v1.747c0,.888.341,1.418,1.315,1.418a1.919,1.919,0,0,0,1.03-.3l-.238-.713a1.512,1.512,0,0,1-.729.217c-.412,0-.546-.257-.546-.641v-1.73h1.347Zm-12.312,3.83v-2.4a1.419,1.419,0,0,0-1.49-1.522,1.461,1.461,0,0,0-1.331.682,1.387,1.387,0,0,0-1.252-.682,1.248,1.248,0,0,0-1.109.569v-.474h-.824v3.83h.831v-2.123a.892.892,0,0,1,.928-1.018c.547,0,.824.361.824,1.01v2.131h.833v-2.124a.9.9,0,0,1,.927-1.018c.562,0,.831.36.831,1.009v2.131Z" data-name="Path 87" transform="translate(-101.17 -1286.368)"/><path id="Path_88" fill="#f79410" d="M1930.052,977.78v-.56h-.144l-.167.384-.166-.384h-.145v.56h.1v-.422l.156.364h.106l.156-.365v.423h.1Zm-.915,0v-.464h.184v-.094h-.472v.094h.185v.464h.1Z" data-name="Path 88" transform="translate(-1884.342 -954.418)"/><path id="Path_89" fill="#ff5f00" d="M742.19,154.83H729.71V132.15h12.48Z" data-name="Path 89" transform="translate(-712.872 -129.067)"/><path id="Path_90" fill="#eb001b" d="M17.629,14.423a14.458,14.458,0,0,1,5.447-11.34A14.1,14.1,0,0,0,14.262,0,14.343,14.343,0,0,0,0,14.423,14.343,14.343,0,0,0,14.262,28.847a14.1,14.1,0,0,0,8.815-3.084,14.458,14.458,0,0,1-5.448-11.34" data-name="Path 90" transform="translate(0 0.001)"/><path id="Path_91" fill="#f79e1b" d="M1023.188,14.423a14.343,14.343,0,0,1-14.262,14.424,14.106,14.106,0,0,1-8.816-3.084,14.525,14.525,0,0,0,0-22.68A14.107,14.107,0,0,1,1008.925,0a14.344,14.344,0,0,1,14.262,14.424" data-name="Path 91" transform="translate(-977.032 0.001)"/></svg>