<svg xmlns="http://www.w3.org/2000/svg" width="67" height="30" viewBox="0 0 67 30"><g id="Group_62" data-name="Group 62" opacity=".5" transform="translate(-19.52 -9.76)"><path id="path1386" fill="#ed1c24" d="M167.218,53.711H155.512a.339.339,0,0,0-.348.356v.95a.338.338,0,0,0,.348.356h8.75v4.99a13,13,0,0,0-.811-1.069,4.606,4.606,0,0,0-3.3-1.6A2.881,2.881,0,0,0,157.83,59a4.015,4.015,0,0,0-.811,2.317,5.182,5.182,0,0,0,.7,2.733,3.25,3.25,0,0,0,2.9,1.485,2.31,2.31,0,0,0,2.434-2.2,2,2,0,0,0-.985-1.723l-.637-.356v1.069a1.131,1.131,0,0,1-1.043.713,1.6,1.6,0,0,1-1.159-.475.951.951,0,0,1-.232-.772,1.478,1.478,0,0,1,.348-.95,1.229,1.229,0,0,1,1.043-.535,3.46,3.46,0,0,1,2.955,1.723,5.528,5.528,0,0,1,.985,3.03v2.5l1.738,1.069a.21.21,0,0,0,.174.059.339.339,0,0,0,.348-.356V55.433h.7a.339.339,0,0,0,.348-.356v-.951a.4.4,0,0,0-.406-.416Z" transform="translate(-104.467 -32.307)"/><path id="path1388" fill="#ed1c24" d="M233.553,52.71H218.719a.339.339,0,0,0-.348.356V54.73c-1.449-1.545-2.724-2.317-3.883-2.317a4.288,4.288,0,0,0-2.84.891,2.875,2.875,0,0,0-1.217,2.257c0,2.673,2.9,2.614,3.651,2.257a1.09,1.09,0,0,1,.464-.178.815.815,0,0,1,.811.891c0,.594-.869,1.129-1.912,1.129a1.236,1.236,0,0,1-1.159-.535l-.464-.713-.29.832a2.118,2.118,0,0,0-.174.713,2.369,2.369,0,0,0,.869,1.723,2.7,2.7,0,0,0,1.854.713,3.037,3.037,0,0,0,2.608-1.248,3.58,3.58,0,0,0,.753-2.317,2.873,2.873,0,0,0-.579-1.6,2.021,2.021,0,0,0-1.681-1.069,2.227,2.227,0,0,0-.811.178,1.446,1.446,0,0,1-.406.119.5.5,0,0,1-.406-.238.8.8,0,0,1-.232-.594,1.444,1.444,0,0,1,1.623-1.307h.058a2.9,2.9,0,0,1,2.028,1.01,8.439,8.439,0,0,1,1.275,1.663v9.446l1.738,1.069a.21.21,0,0,0,.174.059.339.339,0,0,0,.348-.356V54.433h2.666v8.257l2.086.891h.116a.338.338,0,0,0,.348-.356v-.059a6.538,6.538,0,0,1,3.129-5.109v.475c0,.356,0,1.248.058,1.723a2.082,2.082,0,0,0,.058.653,14.685,14.685,0,0,0,.406,3.446c.579,2.02,1.565,2.5,2.26,2.5h.058a1.343,1.343,0,0,0,.985-.356,1.06,1.06,0,0,0,.29-.772,2.026,2.026,0,0,0-.174-.891l-.174-.3-.348.059c-.348.119-.522.119-.522.059h-.058c-.116,0-.116,0-.174-.059-.116-.059-.348-.238-.521-.891a7.345,7.345,0,0,1-.174-1.485c0-2.673.522-4.693,1.391-5.109h.058a.4.4,0,0,0,.232-.356.222.222,0,0,0-.058-.178v-.059a3.545,3.545,0,0,0-2.434-1.723h-.232a8.174,8.174,0,0,0-3.419,2.02c-.348.3-.7.594-.985.891V54.433h8.113a.339.339,0,0,0,.348-.356v-.95a.332.332,0,0,0-.348-.416Z" transform="translate(-147.392 -31.306)"/><path id="path1392" fill="#ed1c24" d="M42.92,30.7a6.991,6.991,0,0,1-.058,1.129A13.6,13.6,0,0,1,41.7,36.46a9.04,9.04,0,0,1-.869,1.663,13.661,13.661,0,0,1-11.59,6.535,13.411,13.411,0,0,1-5.795-1.307,14.121,14.121,0,0,1-.29-25.188,13.064,13.064,0,0,0-.985,1.485c0,.059-.058.059-.058.119-.174.178-.348.3-.522.475-.232.178-.406.416-.637.594l-.116.119-.116.119c-.058.059-.116.178-.232.238-.116.178-.29.356-.406.535a10.5,10.5,0,0,0-1.391,2.5c-.058.059-.058.178-.116.238-.058.119-.058.238-.116.3,0,.059-.058.119-.058.178-.058.178-.116.3-.174.475-.058.119-.058.238-.116.3,0,.059-.058.119-.058.178,0,.119-.058.238-.058.356l-.174,1.069a.547.547,0,0,1-.058.3v1.426a12.092,12.092,0,0,0,4.4,9.446,11.813,11.813,0,0,0,7.533,2.792,11.42,11.42,0,0,0,6.954-2.317,12.165,12.165,0,0,0,3.477-4.04c.116-.238.232-.416.348-.653a11.248,11.248,0,0,0,1.1-4.812v-.416a8.16,8.16,0,0,0-.058-1.188l.058.059c.174.178.348.3.522.475.174-.3.348-.535.522-.832a14.337,14.337,0,0,1,.232,1.663A11.75,11.75,0,0,1,42.92,30.7Z" transform="translate(3.952 -4.898)"/><path id="path1394" fill="#f7941d" d="M50.415,7.666l-2.55-4.812A12.429,12.429,0,0,0,40.737,14.2a12.623,12.623,0,0,0,2.028,6.891,11.473,11.473,0,0,1-.116-2.02A12.454,12.454,0,0,1,50.415,7.666Z" transform="translate(-15.596 6.906)"/><path id="path1396" fill="#ed1c24" d="M64.736,11.443a12.292,12.292,0,0,1,3.3-.416,11.87,11.87,0,0,1,2.086.178l-.058-2.139-.116-4.277a11.941,11.941,0,0,0-1.507-.119,10.632,10.632,0,0,0-6.2,2.02L63.635,9.3a10.751,10.751,0,0,0-5.795,4.99,10.5,10.5,0,0,0-1.275,3.8,11.043,11.043,0,0,1,1.217-1.96,12.525,12.525,0,0,1,6.954-4.693Z" transform="translate(-27.889 5.506)"/><path id="path1398" fill="#f7941d" d="M74.851,23.612l.116,3.03a10.4,10.4,0,0,0-3.071-.475,10.629,10.629,0,0,0-10.141,7.426,11.613,11.613,0,0,1,2.955-2.911,10.552,10.552,0,0,1,10.373-.772,9.165,9.165,0,0,1,2.782,1.96l1.623-2.5,2.086-3.267A10.456,10.456,0,0,0,74.851,23.612Z" transform="translate(-31.919 -9.099)"/><path id="path1400" fill="#f7941d" d="M49.245,35.074v.416a11.88,11.88,0,0,1-1.1,4.812c-.116.238-.232.416-.348.653a12.165,12.165,0,0,1-3.477,4.04,11.812,11.812,0,0,1-6.954,2.317,11.381,11.381,0,0,1-7.533-2.792,12.37,12.37,0,0,1-4.4-9.446V33.648a.547.547,0,0,1,.058-.3l.174-1.069c0-.119.058-.238.058-.356,0-.059.058-.119.058-.178.058-.119.058-.238.116-.3a4.156,4.156,0,0,1,.174-.475c0-.059.058-.119.058-.178.058-.119.058-.238.116-.3s.058-.178.116-.238a13.009,13.009,0,0,1,1.391-2.5c.116-.178.29-.356.406-.535.058-.059.116-.178.232-.238.058-.059.058-.119.116-.119.058-.059.058-.119.116-.119a3.066,3.066,0,0,1,.637-.594c.174-.178.348-.3.522-.475,0,.059-.058.059-.058.119a.209.209,0,0,1-.058.119,14.677,14.677,0,0,0-1.333,4.931,12.228,12.228,0,0,0-.058,1.485c0,6.416,3.651,11.584,8.171,11.584H36.9a10.52,10.52,0,0,0,1.912-.238,7.367,7.367,0,0,0,5.331-7.129v-.178a7.259,7.259,0,0,0-2.2-5.109,10.43,10.43,0,0,1,2.724.416A11.758,11.758,0,0,1,49.187,34l.058.059A5.832,5.832,0,0,0,49.245,35.074Z" transform="translate(-3.706 -10.7)"/><path id="path1402" fill="#f7941d" d="M48.439,34.274v.416a11.962,11.962,0,0,1-1.159,4.871c-.116.238-.232.416-.348.653a12.334,12.334,0,0,1-3.535,4.04,11.456,11.456,0,0,1-7.012,2.317,11.877,11.877,0,0,1-7.591-2.792,12.459,12.459,0,0,1,0-19.01l.116-.119c0,.059-.058.059-.058.119s-.058.059-.058.119a12.427,12.427,0,0,0,.058,18.832,11.665,11.665,0,0,0,7.533,2.733,11.412,11.412,0,0,0,6.954-2.317,12.165,12.165,0,0,0,3.477-4.04,3.223,3.223,0,0,0,.29-.653,11.517,11.517,0,0,0,1.159-4.812v-.416a8.16,8.16,0,0,0-.058-1.188v-.059l.058.059.058.059A4.565,4.565,0,0,1,48.439,34.274Z" transform="translate(-2.9 -9.899)"/></g></svg>