<svg xmlns="http://www.w3.org/2000/svg" width="54.035" height="34.04" viewBox="0 0 54.035 34.04">
  <g id="Rocket" transform="translate(0 0)">
    <path id="Path_50" data-name="Path 50" d="M296.291,320.2l-7.985,7.988.56,4.485,1.471-3.083,4.552,5.817,6.373-19.623-21.223,8.83,5.744,3.013Z" transform="translate(-256.132 -315.78)" fill="#8c3494" fill-rule="evenodd"/>
    <path id="Path_51" data-name="Path 51" d="M270.148,419.34h-8.4c-6.409.981-7.074,10.3-.069,11.564h8.476v-8.41a2.653,2.653,0,0,1,1.331,4.905c.42.491,2.1,2.312,2.1,2.312A5.786,5.786,0,0,0,270.148,419.34Zm-3.081,8.41h-4.692c-2.906.174-3.853-4.626-.281-5.256h4.973Z" transform="translate(-236.923 -400.908)" fill="#8c3494"/>
    <path id="Path_52" data-name="Path 52" d="M383.337,398.326h-3.083l-1.331,3.084h3.922a.6.6,0,1,1,0,1.191h-6.793v-5.325h10.436v-3.154h-1.54c-.455-6.518-8.246-6.71-10.3-3.154.4.333,2.311,2.033,2.311,2.033a2.664,2.664,0,0,1,4.9,1.121h-8.9v11.564h10.016a3.589,3.589,0,0,0,3.572-3.154A3.8,3.8,0,0,0,383.337,398.326Z" transform="translate(-332.532 -375.689)" fill="#8c3494" fill-rule="evenodd"/>
    <path id="Path_53" data-name="Path 53" d="M235.968,419.34h-4.063c-1.295,1.577-3.536,7.954.911,12.755,0,0,1.926-1.646,2.311-1.961A7.766,7.766,0,0,1,235.968,419.34Z" transform="translate(-215.141 -400.908)" fill="#8c3494" fill-rule="evenodd"/>
    <path id="Path_54" data-name="Path 54" d="M181.061,479.849a2.545,2.545,0,1,1-2.545-2.549A2.547,2.547,0,0,1,181.061,479.849Z" transform="translate(-170.574 -448.551)" fill="#8c3494" fill-rule="evenodd"/>
    <path id="Path_55" data-name="Path 55" d="M150.7,419.34c-6.409.981-7.074,10.3-.069,11.564h.046a3.174,3.174,0,0,1,5.792,0h2.636V419.34Zm5.322,8.41h-4.692c-2.907.174-3.853-4.626-.279-5.256h4.973v5.256Z" transform="translate(-145.635 -400.908)" fill="#8c3494" fill-rule="evenodd"/>
    <path id="Path_56" data-name="Path 56" d="M177.783,391.2a1.451,1.451,0,0,0-.14-2.768H174.91v4.03h1.121V391.2l1.261,1.262h1.752Zm-.133-1.424a.266.266,0,0,1-.265.265h-1.339v-.561h1.339a.266.266,0,0,1,.265.265Z" transform="translate(-169.702 -375.499)" fill="#8c3494" fill-rule="evenodd"/>
    <path id="Path_57" data-name="Path 57" d="M199.68,388.07a2.042,2.042,0,1,0,2.04,2.042A2.041,2.041,0,0,0,199.68,388.07Zm0,2.939a.9.9,0,1,1,.9-.9A.9.9,0,0,1,199.68,391.009Z" transform="translate(-188.39 -375.203)" fill="#8c3494" fill-rule="evenodd"/>
    <path id="Path_58" data-name="Path 58" d="M265.247,389.124h1.834V387.94h-1.553a2.055,2.055,0,1,0,0,4.1h1.553v-1.184h-1.834a.839.839,0,0,1-.664-.328h2.5v-1.075h-2.5A.839.839,0,0,1,265.247,389.124Z" transform="translate(-242.378 -375.096)" fill="#8c3494" fill-rule="evenodd"/>
    <path id="Path_59" data-name="Path 59" d="M223.789,390.844a.844.844,0,0,1-.841-.842v-.046a.844.844,0,0,1,.841-.842h1.743V387.93h-1.564a2.055,2.055,0,1,0,0,4.1h1.564v-1.184Z" transform="translate(-208.21 -375.088)" fill="#8c3494" fill-rule="evenodd"/>
    <path id="Path_60" data-name="Path 60" d="M290.193,388.38H286.24v1.059h1.448v2.9h1.058v-2.9h1.446Z" transform="translate(-261.229 -375.458)" fill="#8c3494" fill-rule="evenodd"/>
    <path id="Path_61" data-name="Path 61" d="M247.332,390.342l1.946-1.961H247.7l-1.094,1.1v-1.1H245.55v3.955h1.058V391.2l1.124,1.134h1.574Z" transform="translate(-227.776 -375.458)" fill="#8c3494"/>
    <path id="Path_62" data-name="Path 62" d="M340.66,493.906a.755.755,0,0,0-.461.329.9.9,0,0,0-.192.534.777.777,0,0,0,.068.315c.057.13.133.194.231.194a.374.374,0,0,0,.192-.08l.11.294a.554.554,0,0,1-.29.089.575.575,0,0,1-.368-.142.773.773,0,0,1-.194-.315.981.981,0,0,1-.046-.343v-.107a1.325,1.325,0,0,1,.382-.81,3.105,3.105,0,0,1,.272-.263h.4v.292A.609.609,0,0,1,340.66,493.906Z" transform="translate(-305.188 -461.95)" fill="#8c3494"/>
    <path id="Path_63" data-name="Path 63" d="M346.154,493.905v1.664h-.333v-.215a.478.478,0,0,0-.169-.285,1.993,1.993,0,0,0-.267-.23.582.582,0,0,0-.338-.107.283.283,0,0,0-.27.16.088.088,0,0,0-.011.045.151.151,0,0,0,.066.119.206.206,0,0,0,.132.053,1.038,1.038,0,0,0,.253-.078l.1.3a.848.848,0,0,1-.372.114.533.533,0,0,1-.3-.093.544.544,0,0,1-.2-.246.4.4,0,0,1-.028-.162.479.479,0,0,1,.233-.431.621.621,0,0,1,.347-.107h.032a.348.348,0,0,0-.093-.2.237.237,0,0,0-.173-.109h-.368v-.2h-.148v-.292h2.142v.292h-.228Zm-.333,0h-.783a.684.684,0,0,1,.345.562,1.248,1.248,0,0,1,.438.329Z" transform="translate(-308.912 -461.958)" fill="#8c3494"/>
    <path id="Path_64" data-name="Path 64" d="M355.968,493.922v1.664h-.333v-1.664h-.246v-.292h.8v.292Z" transform="translate(-318.079 -461.975)" fill="#8c3494"/>
    <path id="Path_65" data-name="Path 65" d="M360.73,493.922h-1.5v-.292H361.3v.292h-.229v1.664h-.293c-.029-.085-.173-.217-.432-.4a2.067,2.067,0,0,0-.439-.214,1.473,1.473,0,0,0-.475-.11l-.089-.331a3.733,3.733,0,0,1,.644-.32C360.139,494.146,360.386,494.05,360.73,493.922Zm.02.36c-.062.021-.128.044-.2.073-.105.046-.294.13-.569.249l-.064.028a2.807,2.807,0,0,1,.754.408l.078.059Z" transform="translate(-321.236 -461.975)" fill="#8c3494"/>
    <path id="Path_66" data-name="Path 66" d="M370.578,493.922v1.664h-.333v-1.664H370v-.292h.8v.292Z" transform="translate(-330.09 -461.975)" fill="#8c3494"/>
    <path id="Path_67" data-name="Path 67" d="M373.84,490.987V490.7h.982a.215.215,0,0,0,0-.025.289.289,0,0,0-.215-.3.246.246,0,0,0-.064-.007.522.522,0,0,0-.132.021c-.071.02-.114.03-.126.032a.375.375,0,0,0-.148.053,1.164,1.164,0,0,1-.187.1l-.107-.248a1.812,1.812,0,0,1,.5-.226.9.9,0,0,1,.247-.037.584.584,0,0,1,.279.089.609.609,0,0,1,.276.547h.19v.292ZM375,492.931a4.291,4.291,0,0,0-.431-.342,1.755,1.755,0,0,0-.365-.169,1.369,1.369,0,0,0-.237-.073l0-.39q.043,0,.128.005c.057,0,.1.005.13.005a.972.972,0,0,0,.368-.059c.18-.075.269-.164.269-.267a.222.222,0,0,0-.1-.187c-.066-.039-.133-.077-.2-.112a.137.137,0,0,0-.057-.014.348.348,0,0,0-.132.03c-.059.027-.085.059-.082.093.012.087.1.123.272.108l-.18.276a.344.344,0,0,1-.222-.069.4.4,0,0,1-.2-.338.343.343,0,0,1,.208-.311.8.8,0,0,1,.39-.093.406.406,0,0,1,.164.03c.046.021.092.044.141.069a.56.56,0,0,1,.34.525.488.488,0,0,1-.208.408,1.077,1.077,0,0,1-.455.169c.059.028.144.075.254.141a4.947,4.947,0,0,1,.455.383Z" transform="translate(-333.247 -459.04)" fill="#8c3494"/>
    <path id="Path_68" data-name="Path 68" d="M383.629,493.93v1.664H383.3v-.66a.289.289,0,0,0-.075-.178.21.21,0,0,0-.158-.091.19.19,0,0,0-.148.1.366.366,0,0,0-.071.219h-.359a.4.4,0,0,0-.071-.238.2.2,0,0,0-.164-.1.239.239,0,0,0-.149.055.186.186,0,0,0-.078.128l-.011.087v.034c0,.171.1.256.313.256a1.139,1.139,0,0,0,.169-.022l-.117.336c-.068.007-.11.013-.125.013a.636.636,0,0,1-.431-.173.48.48,0,0,1-.128-.2.665.665,0,0,1-.046-.235.6.6,0,0,1,.165-.438.585.585,0,0,1,.436-.167.47.47,0,0,0,.818,0,.324.324,0,0,1,.226.107v-.491H381.5v-.292h2.32v.292h-.19Z" transform="translate(-339.545 -461.983)" fill="#8c3494"/>
    <path id="Path_69" data-name="Path 69" d="M400.57,493.922h-1.5v-.292h2.074v.292h-.231v1.664h-.293c-.028-.085-.173-.217-.432-.4a2.069,2.069,0,0,0-.439-.214,1.473,1.473,0,0,0-.475-.11l-.089-.331a3.729,3.729,0,0,1,.644-.32C399.979,494.146,400.226,494.05,400.57,493.922Zm.02.36c-.062.021-.128.044-.2.073-.1.046-.293.13-.569.249l-.064.028a2.81,2.81,0,0,1,.754.408l.078.059Z" transform="translate(-353.989 -461.975)" fill="#8c3494"/>
    <path id="Path_70" data-name="Path 70" d="M410.623,493.914a.677.677,0,0,0-.158.361,3.262,3.262,0,0,0,.162.527,1.2,1.2,0,0,1,.084.384.416.416,0,0,1-.326.406,1.527,1.527,0,0,1-.354.062l.044-.288c.2-.041.3-.11.3-.208a1.187,1.187,0,0,0-.123-.416,1.184,1.184,0,0,1-.123-.413.883.883,0,0,1,.142-.417h-.347v-.292h.928v.292h-.226Z" transform="translate(-362.91 -461.967)" fill="#8c3494"/>
    <path id="Path_71" data-name="Path 71" d="M415.2,493.922v1.664h-.334v-1.664h-.245v-.292h.8v.292Z" transform="translate(-366.773 -461.975)" fill="#8c3494"/>
    <path id="Path_72" data-name="Path 72" d="M419.806,494.949a.5.5,0,0,1-.375-.148.524.524,0,0,1-.141-.379.493.493,0,0,1,.505-.5.439.439,0,0,1,.423.294.6.6,0,0,1,.057.246.5.5,0,0,1-.123.356A.442.442,0,0,1,419.806,494.949Zm.365,1.072a5.449,5.449,0,0,0-.859-.641l0-.461a5.348,5.348,0,0,1,1.138.993v.342Zm-.3-1.75a.143.143,0,0,0-.1-.029c-.126.021-.188.084-.188.187a.219.219,0,0,0,.062.148.19.19,0,0,0,.141.068l.046-.007a.174.174,0,0,0,.142-.173A.225.225,0,0,0,419.875,494.271Z" transform="translate(-370.612 -462.213)" fill="#8c3494"/>
    <path id="Path_73" data-name="Path 73" d="M427.272,489.431a1.944,1.944,0,0,0-.952-.367.746.746,0,0,0-.642.278.521.521,0,0,0-.078.283h.233v.292H425.6v1.664h-.338v-1.664h-.222v-.292h.222a.81.81,0,0,1,.233-.575,1.016,1.016,0,0,1,.6-.272c.027,0,.075-.009.149-.018h.071a1.507,1.507,0,0,1,.6.132,5.769,5.769,0,0,1,.534.3Z" transform="translate(-375.34 -457.972)" fill="#8c3494"/>
    <path id="Path_74" data-name="Path 74" d="M429.628,493.922v.011a1.037,1.037,0,0,1,.434.132.526.526,0,0,1,.318.472.454.454,0,0,1-.107.3A.506.506,0,0,1,430,495a.666.666,0,0,1-.292.013V494.7a.738.738,0,0,0,.1.007c.167,0,.251-.061.251-.18,0-.142-.144-.233-.432-.271v1.328h-.293a.922.922,0,0,0-.142-.214q-.024-.027-.128-.166a.657.657,0,0,0-.117-.114.652.652,0,0,1-.117-.114.172.172,0,0,0-.078-.045,1.149,1.149,0,0,0-.35-.077l-.089-.331c.073-.053.238-.151.5-.3q.029-.021.235-.139c.05-.03.133-.078.249-.144v-.025H428.24v-.292h2.284v.292Zm-.333.384c-.053.041-.137.1-.247.166a.355.355,0,0,0-.1.071c-.037.036-.071.069-.1.1.036.032.092.077.171.135.073.084.167.185.279.308Z" transform="translate(-377.971 -461.975)" fill="#8c3494"/>
    <path id="Path_75" data-name="Path 75" d="M441.506,494.949a.5.5,0,0,1-.375-.148.524.524,0,0,1-.141-.379.493.493,0,0,1,.505-.5.439.439,0,0,1,.423.294.6.6,0,0,1,.057.246.5.5,0,0,1-.123.356A.442.442,0,0,1,441.506,494.949Zm.363,1.072a5.453,5.453,0,0,0-.859-.641l0-.461a5.342,5.342,0,0,1,1.138.993v.342Zm-.293-1.75a.143.143,0,0,0-.1-.029c-.126.021-.189.084-.189.187a.219.219,0,0,0,.062.148.189.189,0,0,0,.141.068l.046-.007a.174.174,0,0,0,.142-.173A.225.225,0,0,0,441.575,494.271Z" transform="translate(-388.453 -462.213)" fill="#8c3494"/>
    <path id="Path_76" data-name="Path 76" d="M237.14,504.417l.621.21.247-.21-.619-.217Z" transform="translate(-220.864 -470.664)" fill="#8c3494"/>
    <path id="Path_77" data-name="Path 77" d="M215.807,494.016v-.376H210.94v.376h.818v.838h.7s.2-.064.247-.165v.331a.265.265,0,0,1-.247.276h-1.033c-.062,0-.125-.029-.125-.276v-.781h-.363v1c0,.082.052.375.313.375h1.4a.444.444,0,0,0,.386-.416v-.961h-.331c-.034.148-.014.247-.165.285h-.413v-.507h1.2v1.6h.413v-1.6h.29v1.6H215.4a.424.424,0,0,0,.413-.431v-.947h-.331c0,.093-.014.23-.165.23H214.4v-.452Zm-.537.783c.062.018.144-.082.206-.166v.386c0,.148-.117.276-.206.276H214.4v-.5Z" transform="translate(-199.323 -461.983)" fill="#8c3494"/>
    <rect id="Rectangle_15" data-name="Rectangle 15" width="0.827" height="0.441" transform="translate(16.939 32.485)" fill="#8c3494"/>
    <path id="Path_78" data-name="Path 78" d="M248.07,493.64v.376h1.361v.222H248.07v.892c.03.29.178.486.461.486h1.231v-1.6h.29v1.6h.372V493.64Zm1.361,1.71H248.6c-.125-.018-.206-.166-.206-.331v-.441h1.034Z" transform="translate(-229.849 -461.983)" fill="#8c3494"/>
    <path id="Path_79" data-name="Path 79" d="M271.33,494.016h1.686v.222h-.5a.166.166,0,0,1-.331,0h-.859v.947c0,.093.014.393.267.431h.676v-.32h-.454a.209.209,0,0,1-.165-.221v-.5h.455v.276h.413v-.221c-.028-.1.434-.093.455,0v.982h.372v-1.6h.247v1.6h.372V493.64h-2.636v.376Z" transform="translate(-248.972 -461.983)" fill="#8c3494"/>
    <path id="Path_80" data-name="Path 80" d="M263.969,494.26h-.879v.518a.427.427,0,0,0,.423.386h.7v-.639A.3.3,0,0,0,263.969,494.26Zm-.267.554c-.158,0-.286-.059-.286-.13s.128-.13.286-.13.286.059.286.13S263.86,494.814,263.7,494.814Z" transform="translate(-242.197 -462.493)" fill="#8c3494"/>
    <path id="Path_81" data-name="Path 81" d="M263.43,500.44v.326l1.06.44v-.345Z" transform="translate(-242.476 -467.573)" fill="#8c3494"/>
    <path id="Path_82" data-name="Path 82" d="M314.019,494.26h-.879v.518a.427.427,0,0,0,.423.386h.7v-.639A.306.306,0,0,0,314.019,494.26Zm-.267.554c-.158,0-.286-.059-.286-.13s.128-.13.286-.13.286.059.286.13S313.91,494.814,313.752,494.814Z" transform="translate(-283.344 -462.493)" fill="#8c3494"/>
    <path id="Path_83" data-name="Path 83" d="M313.47,500.44v.326l1.062.44v-.345Z" transform="translate(-283.615 -467.573)" fill="#8c3494"/>
    <path id="Path_84" data-name="Path 84" d="M322.932,494.238v-.222h.685v-.376H321.24v.376H322.6v.222H321.24v.892c.03.29.178.486.461.486h1.231v-.982h.331c.055,0,.069-.028.082.055v.165c-.021.082-.029.139-.082.165h-.121v.331h.246a.308.308,0,0,0,.247-.221v-.892Zm-.331,1.112h-.825c-.125-.018-.206-.166-.206-.331v-.441H322.6l.005.055h0Z" transform="translate(-290.004 -461.983)" fill="#8c3494"/>
    <path id="Path_85" data-name="Path 85" d="M292.41,493.64v.376h1.361v.222H292.41v.892c.028.29.178.486.461.486H294.1v-1.6h.43l-.157.313v.221h.29c.153.018.206.119.206.386,0,.183-.043.317-.185.331h-.27v.331h.29c.082,0,.461.037.5-.331.041-.746.076-.938-.455-.993l.078-.258h.582v1.6h.372V493.64Zm1.361,1.71h-.827c-.125-.018-.206-.166-.206-.331v-.441h1.033Z" transform="translate(-266.302 -461.983)" fill="#8c3494"/>
  </g>
</svg>
