<svg xmlns="http://www.w3.org/2000/svg" width="24.885" height="7.999" viewBox="0 0 24.885 7.999"><g id="Group_63" data-name="Group 63" transform="translate(0 0)"><path id="Path_93" fill="#2566af" d="M22.014,59.384H19.983l1.269-7.727h2.031Zm-3.739-7.727-1.936,5.315-.229-1.145h0l-.683-3.475a.866.866,0,0,0-.963-.7h-3.2l-.038.131a7.638,7.638,0,0,1,2.124.883l1.764,6.713H17.23l3.231-7.728Zm15.971,7.727h1.864l-1.626-7.728H32.853a.932.932,0,0,0-.937.576l-3.028,7.152H31l.423-1.148h2.581Zm-2.234-2.733,1.067-2.892.6,2.892Zm-2.966-3.136.29-1.659a5.908,5.908,0,0,0-1.826-.337c-1.008,0-3.4.436-3.4,2.558,0,2,2.809,2.021,2.809,3.07s-2.519.861-3.351.2l-.3,1.735a5.735,5.735,0,0,0,2.292.436c1.386,0,3.476-.711,3.476-2.646,0-2.009-2.834-2.2-2.834-3.07S28.177,53.041,29.046,53.515Z" data-name="Path 93" transform="translate(-11.226 -51.519)"/><path id="Path_94" fill="#e6a540" d="M16.44,56.639l-.729-3.71a.925.925,0,0,0-1.028-.743H11.266l-.04.14a8.434,8.434,0,0,1,3.217,1.6A6.43,6.43,0,0,1,16.44,56.639Z" data-name="Path 94" transform="translate(-11.226 -52.039)"/></g></svg>